<svg width="120" height="120" viewBox="0 0 120 120" fill="none" xmlns="http://www.w3.org/2000/svg">
<path d="M119 60C119 71.6691 115.54 83.0761 109.057 92.7786C102.574 102.481 93.3592 110.043 82.5783 114.509C71.7975 118.974 59.9346 120.143 48.4897 117.866C37.0448 115.59 26.532 109.971 18.2807 101.719C10.0294 93.468 4.4102 82.9552 2.13367 71.5103C-0.14286 60.0654 1.02554 48.2025 5.49111 37.4217C9.95668 26.6408 17.5189 17.4263 27.2214 10.9433C36.9239 4.46029 48.3309 1 60 1" stroke="#1C1C1E" stroke-width="2" stroke-linecap="round"/>
<path d="M60 1C71.6691 1 83.0761 4.46029 92.7786 10.9433C102.481 17.4263 110.043 26.6408 114.509 37.4217C118.974 48.2025 120.143 60.0655 117.866 71.5103C115.59 82.9552 109.971 93.468 101.719 101.719C93.468 109.971 82.9552 115.59 71.5103 117.866C60.0654 120.143 48.2025 118.974 37.4217 114.509C26.6408 110.043 17.4263 102.481 10.9433 92.7786C4.46029 83.0761 0.999999 71.6691 1 60" stroke="url(#paint0_linear_239_6785)" stroke-width="2" stroke-linecap="round"/>
<g clip-path="url(#clip0_239_6785)">
<path d="M89.2236 83.25H30.2148V87.125H89.2236V83.25Z" fill="white"/>
<path d="M82.9012 50.3125C83.4601 50.3125 83.9962 50.1083 84.3914 49.745C84.7866 49.3816 85.0086 48.8888 85.0086 48.375V42.5625C85.0085 42.1643 84.8748 41.7758 84.6259 41.4499C84.3771 41.1241 84.025 40.8766 83.6177 40.7412L60.4357 32.9912C59.9727 32.8373 59.4657 32.8373 59.0026 32.9912L35.8206 40.7412C35.4133 40.8766 35.0613 41.1241 34.8124 41.4499C34.5635 41.7758 34.4299 42.1643 34.4297 42.5625V48.375C34.4297 48.8888 34.6517 49.3816 35.0469 49.745C35.4422 50.1083 35.9782 50.3125 36.5371 50.3125H38.6446V75.5H34.4297V79.375H85.0086V75.5H80.7937V50.3125H82.9012ZM38.6446 43.9187L59.7192 36.8662L80.7937 43.9187V46.4375H38.6446V43.9187ZM63.9341 75.5H55.5042V50.3125H63.9341V75.5ZM42.8595 50.3125H51.2893V75.5H42.8595V50.3125ZM76.5788 75.5H68.149V50.3125H76.5788V75.5Z" fill="white"/>
</g>
<defs>
<linearGradient id="paint0_linear_239_6785" x1="0" y1="120" x2="90.5973" y2="89.6441" gradientUnits="userSpaceOnUse">
<stop stop-color="#64D2FF"/>
<stop offset="1" stop-color="#5E5CE6"/>
</linearGradient>
<clipPath id="clip0_239_6785">
<rect width="67.4386" height="62" fill="white" transform="translate(26 29)"/>
</clipPath>
</defs>
</svg>
